<svg width="699" height="815" viewBox="0 0 699 815" fill="none" xmlns="http://www.w3.org/2000/svg">
<path d="M154.744 253.74H186.76V774H154.744V253.74ZM61.364 253.74H93.38V774H61.364V253.74ZM233.497 253.74H581.004V285.756H265.513V774H233.497V253.74ZM324.209 323.108H581.004V355.124H356.225V476.518H552.323V508.534H324.209V323.108ZM324.209 543.218H552.323V575.234H356.225V774H324.209V543.218Z" fill="url(#paint0_linear_73_9)"/>
<line x1="568.5" y1="265" x2="568.5" y2="344" stroke="black" stroke-width="25"/>
<line x1="166.041" y1="761.768" x2="87.0417" y2="762.042" stroke="#0D0D0D" stroke-width="25"/>
<line x1="165.043" y1="266.5" x2="86.0434" y2="266.775" stroke="black" stroke-width="25"/>
<line x1="331.043" y1="761.5" x2="252.043" y2="761.774" stroke="#0D0D0D" stroke-width="25"/>
<line x1="539.5" y1="490" x2="539.5" y2="569" stroke="black" stroke-width="25"/>
<defs>
<linearGradient id="paint0_linear_73_9" x1="730.773" y1="71.9118" x2="-189.582" y2="1076.25" gradientUnits="userSpaceOnUse">
<stop/>
<stop offset="1" stop-color="#131313"/>
</linearGradient>
</defs>
</svg>
